<?xml version="1.0" encoding="iso-8859-1"?>
<!-- Uploaded to: SVG Repo, www.svgrepo.com, Generator: SVG Repo Mixer Tools -->
<!DOCTYPE svg PUBLIC "-//W3C//DTD SVG 1.1//EN" "http://www.w3.org/Graphics/SVG/1.1/DTD/svg11.dtd">
<svg fill="#000000" version="1.1" id="Capa_1" xmlns="http://www.w3.org/2000/svg" xmlns:xlink="http://www.w3.org/1999/xlink" 
	 width="800px" height="800px" viewBox="0 0 57.125 57.125"
	 xml:space="preserve">
<g>
	<g>
		<path d="M10.799,22.209c0,3.093,4.365,6.003,4.365,6.003s2.343,6.821,10.357,6.913c8.014-0.092,10.358-6.913,10.358-6.913
			s4.364-2.911,4.364-6.003s-1.91-4.094-1.91-4.094s1-3.729-1.91-8.366c-2.91-4.639-9.915-4.675-9.915-4.675h-1.977
			c0,0-7.004,0.037-9.913,4.675c-2.911,4.637-1.91,8.366-1.91,8.366S10.799,19.116,10.799,22.209z"/>
		<path d="M46.875,26.342c-5.468,0-9.92,4.284-10.221,9.676l-3.061-1.416l-8.073,16.39l-8.073-16.39L0,42.676v9.375h25h1.042h25
			v-6.1c3.583-1.598,6.083-5.185,6.083-9.359C57.125,30.932,52.537,26.342,46.875,26.342z M43.117,30.523
			c-0.12,0.42-0.245,0.885-0.362,1.379c-0.394-0.083-0.728-0.177-1.017-0.272C42.149,31.207,42.614,30.837,43.117,30.523z
			 M40.967,32.574c0.414,0.162,0.927,0.318,1.55,0.452c-0.184,0.968-0.32,2.012-0.354,3.063h-2.407
			C39.844,34.792,40.276,33.587,40.967,32.574z M39.761,37.236h2.405c0.045,1.091,0.199,2.165,0.397,3.15
			c-0.578,0.12-1.059,0.262-1.459,0.41C40.363,39.78,39.881,38.562,39.761,37.236z M41.919,41.735
			c0.262-0.08,0.559-0.157,0.898-0.228c0.104,0.416,0.212,0.808,0.319,1.165C42.698,42.404,42.29,42.091,41.919,41.735z
			 M46.301,43.711c-0.605-0.05-1.188-0.173-1.742-0.363c-0.181-0.536-0.398-1.234-0.599-2.029c0.663-0.084,1.438-0.143,2.341-0.159
			V43.711z M46.301,40.01c-0.998,0.019-1.856,0.086-2.6,0.186c-0.189-0.931-0.337-1.941-0.383-2.959h2.982V40.01z M46.301,36.088
			h-2.988c0.034-0.977,0.164-1.953,0.339-2.867c0.754,0.104,1.628,0.173,2.649,0.192V36.088z M46.301,32.265
			c-0.934-0.021-1.729-0.081-2.407-0.169c0.211-0.877,0.443-1.652,0.639-2.247c0.562-0.196,1.152-0.322,1.769-0.373V32.265z
			 M47.449,29.476c0.802,0.063,1.566,0.256,2.272,0.563c0.179,0.558,0.381,1.246,0.567,2.018c-0.816,0.108-1.762,0.183-2.84,0.204
			V29.476z M49.696,43.157c-0.698,0.302-1.454,0.489-2.246,0.554v-2.547c1.049,0.019,1.971,0.092,2.771,0.199
			C50.045,42.05,49.86,42.661,49.696,43.157z M50.481,40.234c-0.878-0.12-1.885-0.204-3.032-0.225v-2.773h3.425
			C50.827,38.269,50.675,39.294,50.481,40.234z M47.449,36.088v-2.675c1.171-0.021,2.193-0.106,3.082-0.23
			c0.179,0.923,0.313,1.915,0.348,2.905H47.449z M52.097,31.725c-0.211,0.05-0.431,0.099-0.669,0.146
			c-0.079-0.34-0.164-0.663-0.248-0.972C51.509,31.148,51.816,31.425,52.097,31.725z M51.164,42.299
			c0.067-0.238,0.136-0.492,0.199-0.753c0.192,0.037,0.377,0.073,0.55,0.113C51.68,41.89,51.427,42.1,51.164,42.299z M52.734,40.678
			c-0.337-0.092-0.708-0.178-1.112-0.257c0.201-0.995,0.357-2.079,0.402-3.185h1.966C53.874,38.509,53.427,39.685,52.734,40.678z
			 M52.028,36.088c-0.033-1.062-0.173-2.117-0.359-3.095c0.441-0.09,0.841-0.186,1.199-0.285c0.64,0.985,1.04,2.14,1.127,3.38
			H52.028L52.028,36.088z"/>
	</g>
</g>
</svg>